<?xml version="1.0" encoding="utf-8"?>
<!-- Generator: Adobe Illustrator 19.0.0, SVG Export Plug-In . SVG Version: 6.00 Build 0)  -->
<svg version="1.1" id="Layer_1" xmlns="http://www.w3.org/2000/svg" xmlns:xlink="http://www.w3.org/1999/xlink" x="0px" y="0px"
	 viewBox="0 0 50 50" style="enable-background:new 0 0 50 50;" xml:space="preserve">
<style type="text/css">
	.st0{fill:#1F2125;}
</style>
<g id="XMLID_9_">
	<g id="XMLID_23_">
		<path id="XMLID_24_" class="st0" d="M41.5,6.7h-2.1V5c0-2.1-1.7-3.8-3.8-3.8S31.8,2.9,31.8,5v1.8H18.4V5c0-2.1-1.7-3.8-3.8-3.8
			S10.8,2.9,10.8,5v1.8H8.8c-2.4,0-4.3,1.9-4.3,4.3v32.7C4.5,46,6.4,48,8.8,48h32.7c2.4,0,4.3-1.9,4.3-4.3V11
			C45.7,8.6,43.8,6.7,41.5,6.7z M33.9,5c0-1,0.8-1.7,1.7-1.7S37.4,4,37.4,5v5.4c0,1-0.8,1.7-1.7,1.7s-1.7-0.8-1.7-1.7V5z M12.9,5
			c0-1,0.8-1.7,1.7-1.7S16.4,4,16.4,5v5.4c0,1-0.8,1.7-1.7,1.7s-1.7-0.8-1.7-1.7V5z M43.7,43.7c0,1.2-1,2.2-2.2,2.2H8.8
			c-1.2,0-2.2-1-2.2-2.2V11c0-1.2,1-2.2,2.2-2.2h2.1v1.6c0,2.1,1.7,3.8,3.8,3.8s3.8-1.7,3.8-3.8V8.8h13.4v1.6c0,2.1,1.7,3.8,3.8,3.8
			s3.8-1.7,3.8-3.8V8.8h2.1c1.2,0,2.2,1,2.2,2.2V43.7z"/>
	</g>
	<g id="XMLID_10_">
		<path id="XMLID_12_" class="st0" d="M39.2,19.8h-9.4h-9.4H11c-0.6,0-1,0.5-1,1v9.4v9.4c0,0.6,0.5,1,1,1h9.4h9.4h9.4
			c0.6,0,1-0.5,1-1v-9.4v-9.4C40.3,20.3,39.8,19.8,39.2,19.8z M38.2,29.2h-7.4v-7.4h7.4V29.2z M28.8,29.2h-7.4v-7.4h7.4V29.2z
			 M12,21.9h7.4v7.4H12V21.9z M12,31.3h7.4v7.4H12V31.3z M21.4,31.3h7.4v7.4h-7.4V31.3z M38.2,38.6h-7.4v-7.4h7.4V38.6z"/>
	</g>
</g>
</svg>
