<?xml version="1.0" encoding="utf-8"?>
<!-- Generator: Adobe Illustrator 19.0.0, SVG Export Plug-In . SVG Version: 6.00 Build 0)  -->
<svg version="1.1" id="Layer_1" xmlns="http://www.w3.org/2000/svg" xmlns:xlink="http://www.w3.org/1999/xlink" x="0px" y="0px"
	 viewBox="0 0 50 50" style="enable-background:new 0 0 50 50;" xml:space="preserve">
<style type="text/css">
	.st0{fill:#1F2125;}
</style>
<g>
	<g>
		<g>
			<path class="st0" d="M25,48.8c-2.6,0-9.5-3.4-14.3-8.8c-4.4-5-6.4-10.7-5.8-16.6C5.8,15.6,6.2,12,6.3,10.5c0.1-1,0.7-1.8,1.7-2.2
				L24.8,2c0.6-0.2,1.3-0.2,1.9,0l15.8,6.3c0.9,0.4,1.5,1.2,1.6,2.2c0.1,1.5,0.4,5.2,1.2,13.5c0,0,0,0,0,0c0.5,6-1.6,11.7-5.9,16.4
				C34.2,46,27.4,48.8,25,48.8z M25.7,3.9c-0.1,0-0.1,0-0.2,0L8.7,10.2c-0.2,0.1-0.3,0.2-0.3,0.4C8.2,12.3,7.8,15.8,7,23.6
				c-0.7,6.7,2.5,11.8,5.3,15c4.8,5.4,11.1,8.1,12.8,8.1c1.6,0,8-2.4,12.9-7.7c4-4.4,5.8-9.4,5.4-14.8c-0.8-8.3-1.1-12-1.2-13.5
				c0-0.2-0.1-0.4-0.3-0.5L25.9,3.9C25.9,3.9,25.8,3.9,25.7,3.9z"/>
		</g>
	</g>
	<g id="XMLID_48_">
		<g id="XMLID_49_">
			<g>
				<path class="st0" d="M32.9,36.5c-0.2,0-0.4-0.1-0.6-0.2L25.1,31l-7.2,5.3c-0.4,0.3-0.8,0.3-1.2,0c-0.4-0.3-0.5-0.7-0.4-1.1
					l2.8-8.5l-7.2-5.2c-0.4-0.3-0.5-0.7-0.4-1.1c0.1-0.4,0.5-0.7,1-0.7h9l2.8-8.5c0.1-0.4,0.5-0.7,1-0.7s0.8,0.3,1,0.7l2.8,8.5h9
					c0.4,0,0.8,0.3,1,0.7c0.1,0.4,0,0.9-0.4,1.1l-7.2,5.2l2.8,8.5c0.1,0.4,0,0.9-0.4,1.1C33.4,36.4,33.2,36.5,32.9,36.5z M25.1,28.7
					c0.2,0,0.4,0.1,0.6,0.2l5.3,3.8l-2-6.2c-0.1-0.4,0-0.9,0.4-1.2l5.3-3.8h-6.5c-0.4,0-0.8-0.3-1-0.7l-2-6.2l-2,6.2
					c-0.1,0.4-0.5,0.7-1,0.7h-6.5l5.3,3.8c0.4,0.3,0.5,0.7,0.4,1.2l-2,6.2l5.3-3.8C24.7,28.8,24.9,28.7,25.1,28.7z"/>
			</g>
		</g>
	</g>
</g>
</svg>
