<?xml version="1.0" encoding="utf-8"?>
<!-- Generator: Adobe Illustrator 19.0.0, SVG Export Plug-In . SVG Version: 6.00 Build 0)  -->
<svg version="1.1" id="Layer_1" xmlns="http://www.w3.org/2000/svg" xmlns:xlink="http://www.w3.org/1999/xlink" x="0px" y="0px"
	 viewBox="0 0 50 50" style="enable-background:new 0 0 50 50;" xml:space="preserve">
<style type="text/css">
	.st0{fill:#1F2125;}
</style>
<g id="XMLID_13_">
	<g id="XMLID_25_">
		<path id="XMLID_8_" class="st0" d="M24.8,46.9c-0.6,0-1-0.4-1-1v-9.7c0-0.6,0.4-1,1-1c0.6,0,1,0.4,1,1v9.7
			C25.8,46.5,25.3,46.9,24.8,46.9z"/>
	</g>
	<g id="XMLID_23_">
		<path id="XMLID_6_" class="st0" d="M33.7,47.4H15.9c-0.6,0-1-0.4-1-1c0-0.6,0.4-1,1-1h17.8c0.6,0,1,0.4,1,1
			C34.7,47,34.2,47.4,33.7,47.4z"/>
	</g>
	<g id="XMLID_18_">
		<path id="XMLID_19_" class="st0" d="M24.8,37.8c-0.3,0-0.6-0.1-0.8-0.4l-4.8-5.9c-6.2-7.7-9.6-17.5-9.6-27.4c0-0.6,0.4-1,1-1h28.3
			c0.6,0,1,0.4,1,1c0,9.9-3.4,19.6-9.6,27.4l0,0l-4.8,5.9C25.4,37.7,25.1,37.8,24.8,37.8z M11.7,5.1c0.2,9.1,3.4,18,9.1,25.1l4,5
			l4-5c5.7-7.1,8.9-16,9.1-25.1H11.7z M29.5,30.9L29.5,30.9L29.5,30.9z"/>
	</g>
	<g id="XMLID_16_">
		<path id="XMLID_2_" class="st0" d="M31.2,29.7c-0.6,0-1-0.4-1-1c0-0.6,0.4-1,1-1c5.5,0,9.8-3.1,12.7-9.2c1.6-3.3,2.3-6.7,2.5-8.4
			h-7.7c-0.6,0-1-0.4-1-1s0.4-1,1-1h8.9c0.3,0,0.6,0.1,0.7,0.3c0.2,0.2,0.3,0.5,0.3,0.8C48.5,9.4,46.3,29.7,31.2,29.7z"/>
	</g>
	<g id="XMLID_14_">
		<path id="XMLID_1_" class="st0" d="M18.3,29.7C3.2,29.7,1,9.4,1,9.2c0-0.3,0.1-0.6,0.3-0.8C1.4,8.2,1.7,8.1,2,8.1h8.9
			c0.6,0,1,0.4,1,1s-0.4,1-1,1H3.1c0.3,1.7,1,5.1,2.5,8.4c2.9,6.1,7.1,9.2,12.7,9.2c0.6,0,1,0.4,1,1C19.3,29.3,18.9,29.7,18.3,29.7z
			"/>
	</g>
</g>
</svg>
