<?xml version="1.0" encoding="utf-8"?>
<!-- Generator: Adobe Illustrator 19.0.0, SVG Export Plug-In . SVG Version: 6.00 Build 0)  -->
<svg version="1.1" id="Layer_1" xmlns="http://www.w3.org/2000/svg" xmlns:xlink="http://www.w3.org/1999/xlink" x="0px" y="0px"
	 viewBox="0 0 50 50" style="enable-background:new 0 0 50 50;" xml:space="preserve">
<style type="text/css">
	.st0{fill:#1F2125;}
</style>
<g id="XMLID_8_">
	<path id="XMLID_9_" class="st0" d="M48.4,10.7c-0.1-0.4-0.4-0.6-0.8-0.7l-6.1-1c0,0,0,0,0,0l-1-6.3c-0.1-0.4-0.3-0.7-0.7-0.8
		c-0.4-0.1-0.8,0-1,0.3l-3,3c-3.3-1.8-7.2-2.9-11.3-2.9C11.5,2.2,1,12.7,1,25.6C1,38.5,11.5,49,24.4,49c12.9,0,23.4-10.5,23.4-23.4
		c0-3.9-1-7.6-2.7-10.9l3-3C48.4,11.4,48.5,11,48.4,10.7z M36.8,21.9c0.3,1.2,0.5,2.4,0.5,3.7c0,7.1-5.8,12.9-12.9,12.9
		c-7.1,0-12.9-5.8-12.9-12.9c0-7.1,5.8-12.9,12.9-12.9c1.4,0,2.8,0.2,4,0.6l1,6.1l-1.3,1.3c-1-0.8-2.3-1.3-3.7-1.3
		c-3.4,0-6.1,2.8-6.1,6.1s2.8,6.1,6.1,6.1s6.1-2.8,6.1-6.1c0-1.2-0.4-2.4-1-3.4l1.3-1.3L36.8,21.9z M28.5,25.6
		c0,2.2-1.8,4.1-4.1,4.1s-4.1-1.8-4.1-4.1s1.8-4.1,4.1-4.1S28.5,23.3,28.5,25.6z M38.7,5l0.7,4.4l-8.2,8.2l-0.7-4.4L38.7,5z
		 M45.7,25.6c0,11.8-9.6,21.3-21.3,21.3c-11.8,0-21.3-9.6-21.3-21.3c0-11.8,9.6-21.3,21.3-21.3c3.5,0,6.8,0.9,9.7,2.4l-4.8,4.8
		c-1.5-0.5-3.2-0.8-4.9-0.8c-8.3,0-15,6.7-15,15s6.7,15,15,15s15-6.7,15-15c0-1.6-0.2-3.1-0.7-4.5l4.9-4.9
		C45,19.1,45.7,22.2,45.7,25.6z M37,19.9l-4.4-0.7l8.2-8.2l4.4,0.7L37,19.9z"/>
</g>
</svg>
