<?xml version="1.0" encoding="utf-8"?>
<!-- Generator: Adobe Illustrator 23.0.3, SVG Export Plug-In . SVG Version: 6.00 Build 0)  -->
<svg version="1.1" id="Layer_1" xmlns="http://www.w3.org/2000/svg" xmlns:xlink="http://www.w3.org/1999/xlink" x="0px" y="0px"
	 viewBox="0 0 672.4 919.4" style="enable-background:new 0 0 672.4 919.4;" xml:space="preserve">
<style type="text/css">
	.st0{fill:#2E7654;}
	.st1{fill:#A4DCAC;}
	.st2{fill:#4DC45B;}
	.st3{fill:#1B6F46;}
	.st4{fill:#1F8F48;}
	.st5{fill:#497F65;}
	.st6{fill:#8CD995;}
	.st7{fill:#7AD685;}
	.st8{fill:#4E8168;}
	.st9{fill:#58BF64;}
	.st10{fill:none;stroke:#A4DCAC;stroke-width:2.7083;stroke-miterlimit:10;}
	.st11{fill:#4FD15E;}
	.st12{clip-path:url(#SVGID_2_);}
	.st13{fill:#9ED6C9;}
	.st14{opacity:0.1;fill:#5FD3A4;}
</style>
<g>
	<g>
		<g>
			<path class="st0" d="M189.2,884.7c0,33.7-27.4,61.1-61.1,61.1c-33.7,0-61.1-27.4-61.1-61.1c0-33.7,27.4-61.1,61.1-61.1
				C161.8,823.6,189.2,851,189.2,884.7z M69.5,884.7c0,32.4,26.3,58.7,58.7,58.7c32.4,0,58.7-26.3,58.7-58.7
				c0-32.4-26.3-58.7-58.7-58.7C95.8,826,69.5,852.3,69.5,884.7z"/>
		</g>
		<g>
			<path class="st0" d="M183.7,884.7c0,30.6-24.9,55.5-55.5,55.5c-30.6,0-55.5-24.9-55.5-55.5c0-30.6,24.9-55.5,55.5-55.5
				C158.8,829.2,183.7,854.1,183.7,884.7z M75,884.7c0,29.3,23.8,53.2,53.2,53.2c29.3,0,53.2-23.8,53.2-53.2
				c0-29.3-23.8-53.2-53.2-53.2C98.9,831.5,75,855.4,75,884.7z"/>
		</g>
		<g>
			<path class="st0" d="M178.1,884.7c0,27.6-22.4,50-50,50c-27.6,0-50-22.4-50-50c0-27.6,22.4-50,50-50
				C155.7,834.7,178.1,857.1,178.1,884.7z M80.6,884.7c0,26.2,21.4,47.6,47.6,47.6c26.2,0,47.6-21.4,47.6-47.6
				c0-26.2-21.4-47.6-47.6-47.6C101.9,837.1,80.6,858.4,80.6,884.7z"/>
		</g>
		<g>
			<path class="st0" d="M172.6,884.7c0,24.5-19.9,44.4-44.4,44.4c-24.5,0-44.4-19.9-44.4-44.4c0-24.5,19.9-44.4,44.4-44.4
				C152.7,840.3,172.6,860.2,172.6,884.7z M86.1,884.7c0,23.2,18.9,42,42,42c23.2,0,42-18.9,42-42c0-23.2-18.9-42-42-42
				C105,842.6,86.1,861.5,86.1,884.7z"/>
		</g>
		<g>
			<path class="st0" d="M167,884.7c0,21.4-17.4,38.9-38.9,38.9c-21.4,0-38.9-17.4-38.9-38.9c0-21.4,17.4-38.9,38.9-38.9
				C149.6,845.8,167,863.3,167,884.7z M91.7,884.7c0,20.1,16.4,36.5,36.5,36.5c20.1,0,36.5-16.4,36.5-36.5
				c0-20.1-16.4-36.5-36.5-36.5C108,848.2,91.7,864.6,91.7,884.7z"/>
		</g>
		<g>
			<path class="st0" d="M161.5,884.7c0,18.4-14.9,33.3-33.3,33.3c-18.4,0-33.3-14.9-33.3-33.3c0-18.4,14.9-33.3,33.3-33.3
				C146.5,851.4,161.5,866.3,161.5,884.7z M97.2,884.7c0,17.1,13.9,30.9,30.9,30.9c17.1,0,30.9-13.9,30.9-30.9
				c0-17.1-13.9-30.9-30.9-30.9C111.1,853.7,97.2,867.6,97.2,884.7z"/>
		</g>
		<g>
			<path class="st0" d="M155.9,884.7c0,15.3-12.5,27.8-27.8,27.8c-15.3,0-27.8-12.5-27.8-27.8c0-15.3,12.5-27.8,27.8-27.8
				C143.5,856.9,155.9,869.4,155.9,884.7z M102.8,884.7c0,14,11.4,25.4,25.4,25.4c14,0,25.4-11.4,25.4-25.4
				c0-14-11.4-25.4-25.4-25.4C114.2,859.3,102.8,870.7,102.8,884.7z"/>
		</g>
		<g>
			<path class="st0" d="M150.4,884.7c0,12.2-10,22.2-22.2,22.2c-12.2,0-22.2-10-22.2-22.2c0-12.2,10-22.2,22.2-22.2
				C140.4,862.5,150.4,872.4,150.4,884.7z M108.3,884.7c0,10.9,8.9,19.8,19.8,19.8c10.9,0,19.8-8.9,19.8-19.8
				c0-10.9-8.9-19.8-19.8-19.8C117.2,864.9,108.3,873.8,108.3,884.7z"/>
		</g>
		<g>
			<path class="st0" d="M144.8,884.7c0,9.2-7.5,16.7-16.7,16.7c-9.2,0-16.7-7.5-16.7-16.7c0-9.2,7.5-16.7,16.7-16.7
				C137.4,868,144.8,875.5,144.8,884.7z M113.9,884.7c0,7.9,6.4,14.3,14.3,14.3c7.9,0,14.3-6.4,14.3-14.3c0-7.9-6.4-14.3-14.3-14.3
				C120.3,870.4,113.9,876.8,113.9,884.7z"/>
		</g>
		<g>
			<path class="st0" d="M139.3,884.7c0,6.1-5,11.1-11.1,11.1c-6.1,0-11.1-5-11.1-11.1c0-6.1,5-11.1,11.1-11.1
				C134.3,873.6,139.3,878.6,139.3,884.7z M119.4,884.7c0,4.8,3.9,8.7,8.7,8.7c4.8,0,8.7-3.9,8.7-8.7c0-4.8-3.9-8.7-8.7-8.7
				C123.4,876,119.4,879.9,119.4,884.7z"/>
		</g>
	</g>
	<g>
		<path class="st1" d="M139,148.8l134.9,134.9c0.8-2.3,1.5-4.6,2.1-6.9L146,146.6C143.6,147.3,141.3,148,139,148.8z"/>
		<path class="st1" d="M126.4,154.1l142.2,142.2c1-2,2-4.1,2.9-6.1L132.5,151.3C130.4,152.1,128.4,153.1,126.4,154.1z"/>
		<path class="st1" d="M153.4,145l124.3,124.3c0.5-2.6,0.8-5.3,1.1-7.9L161.3,143.9C158.6,144.2,156,144.5,153.4,145z"/>
		<path class="st1" d="M115.1,161l146.6,146.6c1.3-1.8,2.4-3.6,3.6-5.5L120.6,157.4C118.7,158.5,116.9,159.7,115.1,161z"/>
		<path class="st1" d="M279.3,252.9c0-3.1,0-6.2-0.3-9.3l-99.9-99.9c-3.1-0.2-6.2-0.3-9.3-0.3L279.3,252.9z"/>
		<path class="st1" d="M107,315.7c9.4,9.4,20.1,16.7,31.3,22L85,284.4C90.3,295.7,97.6,306.3,107,315.7z"/>
		<path class="st1" d="M75.3,247.6l99.9,99.9c3.1,0.2,6.2,0.3,9.3,0.3L75,238.3C74.9,241.4,75,244.5,75.3,247.6z"/>
		<path class="st1" d="M274.8,221.3l-73.5-73.5c-3.9-1.2-7.9-2.1-11.9-2.8l88.2,88.2C277,229.2,276,225.3,274.8,221.3z"/>
		<path class="st1" d="M105.2,169.1l148.4,148.4c1.5-1.6,2.9-3.2,4.2-4.8L110,164.9C108.4,166.2,106.8,167.6,105.2,169.1z"/>
		<path class="st1" d="M79.4,269.8l73.5,73.5c3.9,1.2,7.9,2.1,11.9,2.8l-88.2-88.2C77.3,261.9,78.3,265.9,79.4,269.8z"/>
		<path class="st1" d="M75.5,229.7L193,347.2c2.7-0.3,5.3-0.6,7.9-1.1L76.6,221.8C76.1,224.4,75.8,227.1,75.5,229.7z"/>
		<path class="st1" d="M247.3,175.4c-9.4-9.4-20.1-16.7-31.3-22l53.3,53.3C264,195.4,256.7,184.8,247.3,175.4z"/>
		<path class="st1" d="M89,189l144.7,144.7c1.9-1.1,3.7-2.3,5.5-3.6L92.5,183.6C91.3,185.3,90.1,187.2,89,189z"/>
		<path class="st1" d="M78.2,214.4l130.1,130.1c2.3-0.6,4.6-1.3,6.9-2.1L80.3,207.5C79.5,209.7,78.8,212.1,78.2,214.4z"/>
		<path class="st1" d="M96.4,178.4l147.8,147.8c1.6-1.3,3.2-2.8,4.8-4.2L100.7,173.6C99.2,175.2,97.8,176.8,96.4,178.4z"/>
		<path class="st1" d="M82.8,200.9l138.9,138.9c2.1-0.9,4.1-1.8,6.1-2.9L85.7,194.8C84.7,196.8,83.7,198.9,82.8,200.9z"/>
	</g>
	<path class="st1" d="M411.4,306.3c0.3,14.7-11.5,26.8-26.1,27.1c-14.7,0.3-26.8-11.5-27.1-26.1c-0.3-14.7,11.5-26.8,26.1-27.1
		C399,279.9,411.1,291.7,411.4,306.3z M370.5,307c0.1,7.9,6.6,14.2,14.5,14c7.9-0.1,14.2-6.6,14-14.5c-0.1-7.9-6.6-14.2-14.5-14
		C376.7,292.7,370.4,299.2,370.5,307z"/>
	<g>
		<g>
			<polygon class="st1" points="374.1,812.3 373.6,795.1 390.8,794.7 391,799.5 378.6,799.8 378.9,812.2 			"/>
		</g>
		<g>
			<polygon class="st1" points="385,822.7 384.6,805.5 401.8,805 401.9,809.9 389.5,810.2 389.9,822.6 			"/>
		</g>
		<g>
			<polygon class="st1" points="395.9,833.1 395.5,815.9 412.7,815.4 412.8,820.3 400.5,820.6 400.8,832.9 			"/>
		</g>
		<g>
			<polygon class="st1" points="406.8,843.4 406.4,826.2 423.6,825.8 423.7,830.6 411.4,831 411.7,843.3 			"/>
		</g>
	</g>
	<g>
		<path class="st1" d="M134.1,456.6L134.1,456.6c0,1.3-1.1,2.4-2.4,2.4h-11.2c-1.3,0-2.4-1.1-2.4-2.4v-8.8c0-1.3-1.1-2.4-2.4-2.4
			h-8.8c-1.3,0-2.4-1.1-2.4-2.4v-8.8c0-1.3-1.1-2.4-2.4-2.4h-8.8c-1.3,0-2.4-1.1-2.4-2.4v-8.8c0-1.3-1.1-2.4-2.4-2.4h-8.8
			c-1.3,0-2.4-1.1-2.4-2.4V407c0-1.3-1.1-2.4-2.4-2.4h-8.8c-1.3,0-2.4-1.1-2.4-2.4v-11.2c0-1.3,1.1-2.4,2.4-2.4l0,0
			c1.3,0,2.4,1.1,2.4,2.4v6.3c0,1.3,1.1,2.4,2.4,2.4h8.8c1.3,0,2.4,1.1,2.4,2.4v8.8c0,1.3,1.1,2.4,2.4,2.4h8.8
			c1.3,0,2.4,1.1,2.4,2.4v8.8c0,1.3,1.1,2.4,2.4,2.4h8.8c1.3,0,2.4,1.1,2.4,2.4v8.8c0,1.3,1.1,2.4,2.4,2.4h8.8
			c1.3,0,2.4,1.1,2.4,2.4v8.8c0,1.3,1.1,2.4,2.4,2.4h6.3C133,454.2,134.1,455.3,134.1,456.6z"/>
	</g>
	<g>
		<path class="st1" d="M429.3,237.5L429.3,237.5c0,1.3-1.1,2.4-2.4,2.4h-11.2c-1.3,0-2.4-1.1-2.4-2.4v-8.8c0-1.3-1.1-2.4-2.4-2.4
			h-8.8c-1.3,0-2.4-1.1-2.4-2.4v-8.8c0-1.3-1.1-2.4-2.4-2.4h-8.8c-1.3,0-2.4-1.1-2.4-2.4v-8.8c0-1.3-1.1-2.4-2.4-2.4h-8.8
			c-1.3,0-2.4-1.1-2.4-2.4v-8.8c0-1.3-1.1-2.4-2.4-2.4h-8.8c-1.3,0-2.4-1.1-2.4-2.4v-11.2c0-1.3,1.1-2.4,2.4-2.4l0,0
			c1.3,0,2.4,1.1,2.4,2.4v6.3c0,1.3,1.1,2.4,2.4,2.4h8.8c1.3,0,2.4,1.1,2.4,2.4v8.8c0,1.3,1.1,2.4,2.4,2.4h8.8
			c1.3,0,2.4,1.1,2.4,2.4v8.8c0,1.3,1.1,2.4,2.4,2.4h8.8c1.3,0,2.4,1.1,2.4,2.4v8.8c0,1.3,1.1,2.4,2.4,2.4h8.8
			c1.3,0,2.4,1.1,2.4,2.4v8.8c0,1.3,1.1,2.4,2.4,2.4h6.3C428.3,235,429.3,236.1,429.3,237.5z"/>
	</g>
	<g>
		<path class="st1" d="M364.7,880.4l-1.8,30.5l26.4,1.5c1.9,0.1,3.3,1.7,3.2,3.6c-0.1,1.9-1.7,3.3-3.6,3.2l-33.2-1.9l1.8-30.5
			l-32.7-1.9l1.8-31.6l-32.5-1.9c-1.9-0.1-3.3-1.7-3.2-3.6c0.1-1.9,1.7-3.3,3.6-3.2l39.2,2.3l-1.8,31.6L364.7,880.4z"/>
	</g>
	<g>
		<path class="st1" d="M345.5,622.4l-1.4-30.6l-26.5,1.2c-1.9,0.1-3.5-1.4-3.5-3.2c-0.1-1.9,1.4-3.5,3.2-3.5l33.2-1.5l1.4,30.6
			l32.7-1.5l1.5,31.6l32.5-1.5c1.9-0.1,3.5,1.4,3.5,3.2c0.1,1.9-1.4,3.5-3.2,3.5l-39.3,1.8l-1.5-31.6L345.5,622.4z"/>
	</g>
	<g>
		<path class="st2" d="M68.6,774.2c0-0.6-0.2-1.2-0.7-1.7c-0.9-0.9-2.4-0.9-3.3,0c-2.7,2.7-6.4,4.3-10.3,4.3
			c-8,0-14.5-6.5-14.5-14.5c0-5.2,2.8-10,7.3-12.6c1.1-0.7,1.5-2.1,0.9-3.2c-0.7-1.1-2.1-1.5-3.2-0.9c-6,3.4-9.7,9.8-9.7,16.7
			c0,10.6,8.6,19.3,19.3,19.3c5.1,0,10-2,13.6-5.6C68.4,775.4,68.6,774.8,68.6,774.2z"/>
	</g>
	<g>
		<path class="st2" d="M407.7,577.7c0.5-0.3,1-0.7,1.2-1.4c0.4-1.2-0.2-2.6-1.5-3c-3.7-1.3-6.6-3.9-8.3-7.4
			c-3.5-7.2-0.5-15.9,6.7-19.4c4.7-2.3,10.2-1.9,14.5,1.1c1.1,0.7,2.6,0.5,3.3-0.6c0.7-1.1,0.5-2.6-0.6-3.3
			c-5.7-3.9-13.1-4.4-19.3-1.4c-9.6,4.6-13.6,16.2-8.9,25.8c2.2,4.6,6.2,8.1,11,9.8C406.5,578.1,407.2,578,407.7,577.7z"/>
	</g>
	<g>
		<path class="st3" d="M369.3,366.3c-2.5-2.2-5.9-3.4-9.5-3.2c-2.2,0.2-4.4-0.6-6-2c-1.7-1.5-2.7-3.5-2.8-5.7
			c-0.1-1.3-1.2-2.3-2.5-2.2c-1.3,0.1-2.3,1.2-2.2,2.5c0.2,3.5,1.8,6.7,4.5,8.9c2.6,2.3,6,3.4,9.5,3.2c4.6-0.3,8.6,3.1,8.9,7.7
			l0.1,1.5c0.2,3.5,1.8,6.7,4.5,8.9c2.6,2.3,6,3.4,9.5,3.2l0.7-0.1c4.6-0.3,8.6,3.1,8.9,7.7l0.3,3.7c0.5,7.2,6.8,12.6,13.9,12.1
			c1.3-0.1,2.3-1.2,2.2-2.5c-0.1-1.3-1.2-2.3-2.5-2.2c-4.6,0.3-8.6-3.1-8.9-7.7l-0.3-3.7c-0.2-3.5-1.8-6.7-4.5-8.9
			c-2.6-2.3-6-3.4-9.5-3.2l-0.7,0.1c-2.2,0.2-4.4-0.6-6-2c-1.7-1.5-2.7-3.5-2.8-5.7l-0.1-1.5C373.5,371.7,371.8,368.5,369.3,366.3z"
			/>
	</g>
	<g>
		<path class="st4" d="M442.6,893.6l23.2-23.2l23.2,23.2l-23.2,23.2L442.6,893.6z M465.8,877.1l-16.5,16.5l16.5,16.5l16.5-16.5
			L465.8,877.1z"/>
	</g>
	<g>
		<path class="st1" d="M416.5,137.4l4.2-32.5l32.5,4.2l-4.2,32.5L416.5,137.4z M424.8,110.3l-3,23.1l23.1,3l3-23.1L424.8,110.3z"/>
	</g>
	<g>
		<path class="st5" d="M135.8,733.2l0.5-21.4l-18.5-0.4c-1.3,0-2.3-1.1-2.3-2.4c0-1.3,1.1-2.3,2.4-2.3l23.2,0.6l-0.5,21.4l22.9,0.5
			l-0.5,22.1l22.7,0.5c1.3,0,2.3,1.1,2.3,2.4c0,1.3-1.1,2.3-2.4,2.3l-27.5-0.7l0.5-22.1L135.8,733.2z"/>
	</g>
	<g>
		<path class="st6" d="M187.6,435.3c2.4,2.3,4,5.5,4.1,9.1c0.1,2.2,1,4.3,2.6,5.8c1.6,1.5,3.7,2.3,6,2.2c1.3,0,2.4,1,2.4,2.3
			c0,1.3-1,2.4-2.3,2.4c-3.5,0.1-6.8-1.1-9.4-3.5c-2.5-2.4-4-5.6-4.1-9.1c-0.2-4.6-4-8.2-8.6-8l-1.5,0c-3.5,0.1-6.8-1.1-9.4-3.5
			c-2.5-2.4-4-5.6-4.1-9.1l0-0.7c-0.2-4.6-4-8.2-8.6-8l-3.7,0.1c-7.2,0.2-13.2-5.4-13.5-12.6c0-1.3,1-2.4,2.3-2.4
			c1.3,0,2.4,1,2.4,2.3c0.2,4.6,4,8.2,8.6,8l3.7-0.1c3.5-0.1,6.8,1.1,9.4,3.5c2.5,2.4,4,5.6,4.1,9.1l0,0.7c0.1,2.2,1,4.3,2.6,5.8
			c1.6,1.5,3.7,2.3,6,2.2l1.5,0C181.8,431.6,185.1,433,187.6,435.3z"/>
	</g>
	<g>
		<path class="st7" d="M27.7,153l4.2-32.5l32.5,4.2l-4.2,32.5L27.7,153z M36,125.8l-3,23.1l23.1,3l3-23.1L36,125.8z"/>
	</g>
	<g>
		<path class="st4" d="M321.7,152.6c-28,0-50.8-22.8-50.8-50.8c0-28,22.8-50.8,50.8-50.8c28,0,50.8,22.8,50.8,50.8
			C372.4,129.9,349.7,152.6,321.7,152.6z M321.7,140.2c21.1,0,38.3-17.2,38.3-38.3c0-21.1-17.2-38.3-38.3-38.3
			c-21.1,0-38.3,17.2-38.3,38.3C283.4,123,300.6,140.2,321.7,140.2z"/>
	</g>
	
		<ellipse transform="matrix(8.221268e-02 -0.9966 0.9966 8.221268e-02 233.3304 686.2009)" class="st0" cx="489.2" cy="216.4" rx="26.6" ry="26.6"/>
	<path class="st0" d="M94.1,603.4c-8.9,0-16.1,7.2-16.1,16.1c0,8.9,7.2,16.1,16.1,16.1c8.9,0,16.1-7.2,16.1-16.1
		C110.2,610.7,103,603.4,94.1,603.4z"/>
	<g>
		<path class="st8" d="M316.5,385.8c5.8,8.9,3.2,20.9-5.7,26.6c-1.1,0.7-2.6,0.4-3.3-0.7c-0.7-1.1-0.4-2.6,0.7-3.3
			c6.7-4.3,8.7-13.4,4.3-20.1c-5.8-8.9-15.3-6.4-20.4-4.2c-10.5,4.7-21,2.3-26.3-5.9c-5.8-8.9-3.2-20.9,5.7-26.6
			c1.1-0.7,2.6-0.4,3.3,0.7c0.7,1.1,0.4,2.6-0.7,3.3c-6.7,4.3-8.7,13.4-4.3,20.1c3.1,4.7,10.3,8.7,20.4,4.2
			C301.3,375,310.9,377.1,316.5,385.8z"/>
	</g>
	<g>
		<path class="st8" d="M575.9,166.2c5.8,8.9,3.2,20.9-5.7,26.6c-1.1,0.7-2.6,0.4-3.3-0.7c-0.7-1.1-0.4-2.6,0.7-3.3
			c6.7-4.3,8.7-13.4,4.3-20.1c-5.8-8.9-15.3-6.4-20.4-4.2c-10.5,4.7-21,2.3-26.3-5.9c-5.8-8.9-3.2-20.9,5.7-26.6
			c1.1-0.7,2.6-0.4,3.3,0.7c0.7,1.1,0.4,2.6-0.7,3.3c-6.7,4.3-8.7,13.4-4.3,20.1c3.1,4.7,10.3,8.7,20.4,4.2
			C560.7,155.3,570.3,157.5,575.9,166.2z"/>
	</g>
	<g>
		<g>
			<polygon class="st9" points="551.8,365.1 552.1,348.8 568.3,349.1 568.3,353.7 556.6,353.5 556.4,365.2 			"/>
		</g>
		<g>
			<polygon class="st9" points="561.7,375.3 562,359.1 578.2,359.3 578.2,363.9 566.5,363.7 566.3,375.4 			"/>
		</g>
		<g>
			<polygon class="st9" points="571.6,385.5 571.9,369.3 588.1,369.5 588.1,374.1 576.4,373.9 576.2,385.6 			"/>
		</g>
		<g>
			<polygon class="st9" points="581.5,395.8 581.8,379.5 598,379.7 598,384.3 586.3,384.2 586.1,395.8 			"/>
		</g>
	</g>
	<g>
		<g>
			<polygon class="st9" points="23,500.3 23.3,484 39.5,484.3 39.5,488.9 27.8,488.7 27.6,500.4 			"/>
		</g>
		<g>
			<polygon class="st9" points="32.9,510.5 33.2,494.3 49.4,494.5 49.4,499.1 37.7,498.9 37.5,510.6 			"/>
		</g>
		<g>
			<polygon class="st9" points="42.8,520.7 43.1,504.5 59.3,504.7 59.3,509.3 47.6,509.1 47.4,520.8 			"/>
		</g>
		<g>
			<polygon class="st9" points="52.7,530.9 53,514.7 69.2,514.9 69.2,519.5 57.5,519.4 57.3,531 			"/>
		</g>
	</g>
	<g>
		<g>
			<path class="st10" d="M347.1,476c0,16.8-13.7,30.5-30.5,30.5c-10.6,0-20.3-5.4-25.9-14.4c-0.2-0.3-0.1-0.7,0.2-0.9
				c0.3-0.2,0.7-0.1,0.9,0.2c5.4,8.6,14.6,13.8,24.8,13.8c16.1,0,29.2-13.1,29.2-29.2c0-4.9-1.2-9.7-3.6-14
				c-0.2-0.3-0.1-0.7,0.3-0.9c0.3-0.2,0.7-0.1,0.9,0.3C345.9,465.8,347.1,470.9,347.1,476z"/>
		</g>
		<g>
			<path class="st10" d="M341.7,458.8c0,0.2-0.1,0.4-0.3,0.5c-0.3,0.2-0.7,0.1-0.9-0.2c-0.4-0.5-0.7-1-1.1-1.5
				c-0.2-0.3-0.2-0.7,0.1-0.9c0.3-0.2,0.7-0.2,0.9,0.1c0.4,0.5,0.8,1,1.2,1.5C341.7,458.5,341.7,458.7,341.7,458.8z"/>
		</g>
		<g>
			<path class="st10" d="M337.9,454.4c0,0.2-0.1,0.3-0.2,0.4c-0.2,0.3-0.6,0.3-0.9,0c-5.4-5.2-12.6-8-20.1-8
				c-16.1,0-29.2,13.1-29.2,29.2c0,4.6,1,9,3.1,13.1c0.2,0.3,0,0.7-0.3,0.9c-0.3,0.2-0.7,0-0.9-0.3c-2.2-4.3-3.2-8.9-3.2-13.7
				c0-16.8,13.7-30.5,30.5-30.5c7.9,0,15.3,3,21,8.4C337.8,454,337.9,454.2,337.9,454.4z"/>
		</g>
	</g>
	<g>
		<path class="st1" d="M464.7,673.3l36.4,36.4c0.2-0.6,0.4-1.2,0.6-1.9l-35.1-35.1C465.9,672.9,465.3,673,464.7,673.3z"/>
		<path class="st1" d="M461.3,674.7l38.4,38.4c0.3-0.5,0.5-1.1,0.8-1.7l-37.5-37.5C462.4,674.2,461.8,674.4,461.3,674.7z"/>
		<path class="st1" d="M468.6,672.2l33.6,33.6c0.1-0.7,0.2-1.4,0.3-2.1l-31.7-31.7C470,672,469.3,672.1,468.6,672.2z"/>
		<path class="st1" d="M458.2,676.6l39.6,39.6c0.3-0.5,0.7-1,1-1.5l-39.1-39.1C459.2,675.9,458.7,676.2,458.2,676.6z"/>
		<path class="st1" d="M502.6,701.4c0-0.8,0-1.7-0.1-2.5l-27-27c-0.8-0.1-1.7-0.1-2.5-0.1L502.6,701.4z"/>
		<path class="st1" d="M456,718.4c2.5,2.5,5.4,4.5,8.5,5.9l-14.4-14.4C451.5,712.9,453.5,715.8,456,718.4z"/>
		<path class="st1" d="M447.5,699.9l27,27c0.8,0.1,1.7,0.1,2.5,0.1l-29.6-29.6C447.4,698.3,447.4,699.1,447.5,699.9z"/>
		<path class="st1" d="M501.4,692.9L481.5,673c-1.1-0.3-2.1-0.6-3.2-0.8l23.8,23.8C502,695,501.7,693.9,501.4,692.9z"/>
		<path class="st1" d="M455.6,678.8l40.1,40.1c0.4-0.4,0.8-0.9,1.1-1.3l-39.9-39.9C456.4,678,456,678.4,455.6,678.8z"/>
		<path class="st1" d="M448.6,706l19.8,19.8c1.1,0.3,2.1,0.6,3.2,0.8l-23.8-23.8C448,703.8,448.3,704.9,448.6,706z"/>
		<path class="st1" d="M447.5,695.1l31.7,31.7c0.7-0.1,1.4-0.2,2.1-0.3L447.8,693C447.7,693.7,447.6,694.4,447.5,695.1z"/>
		<path class="st1" d="M494,680.5c-2.5-2.5-5.4-4.5-8.5-5.9l14.4,14.4C498.5,685.9,496.5,683,494,680.5z"/>
		<path class="st1" d="M451.2,684.1l39.1,39.1c0.5-0.3,1-0.6,1.5-1l-39.6-39.6C451.8,683.1,451.5,683.6,451.2,684.1z"/>
		<path class="st1" d="M448.3,691l35.1,35.1c0.6-0.2,1.3-0.4,1.9-0.6l-36.4-36.4C448.6,689.7,448.4,690.4,448.3,691z"/>
		<path class="st1" d="M453.2,681.3l39.9,39.9c0.4-0.4,0.9-0.7,1.3-1.1L454.3,680C453.9,680.4,453.6,680.8,453.2,681.3z"/>
		<path class="st1" d="M449.5,687.4l37.5,37.5c0.6-0.2,1.1-0.5,1.7-0.8l-38.4-38.4C450,686.2,449.8,686.8,449.5,687.4z"/>
	</g>
	<g>
		<g>
			<path class="st1" d="M555,431.8c0,36.8-29.9,66.7-66.7,66.7c-36.8,0-66.7-29.9-66.7-66.7c0-36.8,29.9-66.7,66.7-66.7
				C525.1,365.2,555,395.1,555,431.8z M424.3,431.8c0,35.3,28.7,64.1,64.1,64.1c35.3,0,64.1-28.7,64.1-64.1
				c0-35.3-28.7-64.1-64.1-64.1C453.1,367.7,424.3,396.5,424.3,431.8z"/>
		</g>
		<g>
			<path class="st1" d="M549,431.8c0,33.4-27.2,60.6-60.6,60.6c-33.4,0-60.6-27.2-60.6-60.6c0-33.4,27.2-60.6,60.6-60.6
				C521.8,371.2,549,398.4,549,431.8z M430.4,431.8c0,32,26,58,58,58c32,0,58-26,58-58c0-32-26-58-58-58
				C456.4,373.8,430.4,399.8,430.4,431.8z"/>
		</g>
		<g>
			<path class="st1" d="M542.9,431.8c0,30.1-24.5,54.5-54.5,54.5c-30.1,0-54.5-24.5-54.5-54.5c0-30.1,24.5-54.5,54.5-54.5
				C518.5,377.3,542.9,401.7,542.9,431.8z M436.4,431.8c0,28.6,23.3,52,52,52c28.6,0,52-23.3,52-52c0-28.6-23.3-52-52-52
				C459.7,379.9,436.4,403.2,436.4,431.8z"/>
		</g>
		<g>
			<path class="st1" d="M536.9,431.8c0,26.7-21.7,48.5-48.5,48.5c-26.7,0-48.5-21.7-48.5-48.5c0-26.7,21.7-48.5,48.5-48.5
				C515.1,383.3,536.9,405.1,536.9,431.8z M442.5,431.8c0,25.3,20.6,45.9,45.9,45.9c25.3,0,45.9-20.6,45.9-45.9
				c0-25.3-20.6-45.9-45.9-45.9C463.1,385.9,442.5,406.5,442.5,431.8z"/>
		</g>
		<g>
			<path class="st1" d="M530.8,431.8c0,23.4-19,42.4-42.4,42.4c-23.4,0-42.4-19-42.4-42.4c0-23.4,19-42.4,42.4-42.4
				C511.8,389.4,530.8,408.4,530.8,431.8z M448.6,431.8c0,22,17.9,39.8,39.8,39.8s39.8-17.9,39.8-39.8c0-22-17.9-39.8-39.8-39.8
				S448.6,409.9,448.6,431.8z"/>
		</g>
		<g>
			<path class="st1" d="M524.7,431.8c0,20-16.3,36.4-36.4,36.4c-20,0-36.4-16.3-36.4-36.4c0-20,16.3-36.4,36.4-36.4
				C508.4,395.5,524.7,411.8,524.7,431.8z M454.6,431.8c0,18.6,15.1,33.8,33.8,33.8c18.6,0,33.8-15.1,33.8-33.8
				c0-18.6-15.1-33.8-33.8-33.8C469.8,398,454.6,413.2,454.6,431.8z"/>
		</g>
		<g>
			<path class="st1" d="M518.7,431.8c0,16.7-13.6,30.3-30.3,30.3c-16.7,0-30.3-13.6-30.3-30.3c0-16.7,13.6-30.3,30.3-30.3
				C505.1,401.5,518.7,415.1,518.7,431.8z M460.7,431.8c0,15.3,12.4,27.7,27.7,27.7c15.3,0,27.7-12.4,27.7-27.7
				c0-15.3-12.4-27.7-27.7-27.7C473.1,404.1,460.7,416.5,460.7,431.8z"/>
		</g>
		<g>
			<path class="st1" d="M512.6,431.8c0,13.4-10.9,24.2-24.2,24.2c-13.4,0-24.2-10.9-24.2-24.2c0-13.4,10.9-24.2,24.2-24.2
				C501.7,407.6,512.6,418.5,512.6,431.8z M466.7,431.8c0,11.9,9.7,21.7,21.7,21.7c11.9,0,21.7-9.7,21.7-21.7
				c0-11.9-9.7-21.7-21.7-21.7C476.4,410.2,466.7,419.9,466.7,431.8z"/>
		</g>
		<g>
			<path class="st1" d="M506.6,431.8c0,10-8.2,18.2-18.2,18.2c-10,0-18.2-8.2-18.2-18.2c0-10,8.2-18.2,18.2-18.2
				C498.4,413.6,506.6,421.8,506.6,431.8z M472.8,431.8c0,8.6,7,15.6,15.6,15.6s15.6-7,15.6-15.6c0-8.6-7-15.6-15.6-15.6
				S472.8,423.2,472.8,431.8z"/>
		</g>
		<g>
			<path class="st1" d="M500.5,431.8c0,6.7-5.4,12.1-12.1,12.1c-6.7,0-12.1-5.4-12.1-12.1c0-6.7,5.4-12.1,12.1-12.1
				C495.1,419.7,500.5,425.1,500.5,431.8z M478.9,431.8c0,5.3,4.3,9.5,9.5,9.5c5.3,0,9.5-4.3,9.5-9.5c0-5.3-4.3-9.5-9.5-9.5
				C483.1,422.3,478.9,426.6,478.9,431.8z"/>
		</g>
	</g>
	
		<ellipse transform="matrix(4.514660e-02 -0.999 0.999 4.514660e-02 -339.5153 759.4715)" class="st9" cx="227.5" cy="557.3" rx="55" ry="55"/>
	<path class="st0" d="M570.8,699.8c-10.9,0-19.8,8.9-19.8,19.8c0,10.9,8.9,19.8,19.8,19.8c10.9,0,19.8-8.9,19.8-19.8
		C590.6,708.7,581.7,699.8,570.8,699.8z"/>
	<g>
		<path class="st11" d="M504.3,586.3l23.2-23.2l23.2,23.2l-23.2,23.2L504.3,586.3z M527.4,569.8L511,586.3l16.5,16.5l16.5-16.5
			L527.4,569.8z"/>
	</g>
	<g>
		<path class="st4" d="M261.2,764.8c-19.4,0-35.1-15.8-35.1-35.1c0-19.4,15.8-35.1,35.1-35.1c19.4,0,35.1,15.8,35.1,35.1
			C296.3,749,280.5,764.8,261.2,764.8z M261.2,756.1c14.6,0,26.5-11.9,26.5-26.5c0-14.6-11.9-26.5-26.5-26.5
			c-14.6,0-26.5,11.9-26.5,26.5C234.7,744.2,246.6,756.1,261.2,756.1z"/>
	</g>
	<g>
		<path class="st9" d="M164.9,83.7l4.2-32.5l32.5,4.2L197.4,88L164.9,83.7z M173.2,56.5l-3,23.1l23.1,3l3-23.1L173.2,56.5z"/>
	</g>
	<g>
		<path class="st3" d="M397.9,697.5v56.5l-56.6-28.3L397.9,697.5z M391.4,743.6V708l-35.6,17.8L391.4,743.6z"/>
	</g>
	<g>
		<path class="st3" d="M492.4,307.9v39.6l-39.6-19.8L492.4,307.9z M487.9,340.1v-24.9L463,327.7L487.9,340.1z"/>
	</g>
	<g>
		<path class="st3" d="M648.9,197.7v32.1l-32.1-16L648.9,197.7z M645.3,223.9v-20.2l-20.2,10.1L645.3,223.9z"/>
	</g>
	<g>
		<path class="st7" d="M473.2,821.8l6-46.2l46.2,6l-6,46.2L473.2,821.8z M485,783.2l-4.3,32.9l32.9,4.3l4.3-32.9L485,783.2z"/>
	</g>
	<g>
		<path class="st11" d="M110.1,531.9l19.2-19.2l19.2,19.2l-19.2,19.2L110.1,531.9z M129.3,518.3l-13.6,13.6l13.6,13.6l13.6-13.6
			L129.3,518.3z"/>
	</g>
	<g>
		<g>
			<polygon class="st9" points="507.8,62 508.1,45.8 524.3,46 524.3,50.6 512.6,50.4 512.4,62.1 			"/>
		</g>
		<g>
			<polygon class="st9" points="517.7,72.3 518,56 534.2,56.2 534.2,60.8 522.5,60.7 522.3,72.3 			"/>
		</g>
		<g>
			<polygon class="st9" points="527.6,82.5 527.9,66.2 544.2,66.5 544.1,71.1 532.4,70.9 532.2,82.5 			"/>
		</g>
		<g>
			<polygon class="st9" points="537.5,92.7 537.8,76.4 554.1,76.7 554,81.3 542.3,81.1 542.1,92.8 			"/>
		</g>
	</g>
	<g>
		<g>
			<polygon class="st9" points="227.1,889.2 227.3,873 243.6,873.2 243.5,877.8 231.8,877.7 231.7,889.3 			"/>
		</g>
		<g>
			<polygon class="st9" points="237,899.5 237.2,883.2 253.5,883.5 253.4,888.1 241.8,887.9 241.6,899.5 			"/>
		</g>
		<g>
			<polygon class="st9" points="246.9,909.7 247.1,893.4 263.4,893.7 263.3,898.3 251.7,898.1 251.5,909.8 			"/>
		</g>
		<g>
			<polygon class="st9" points="256.8,919.9 257,903.6 273.3,903.9 273.2,908.5 261.6,908.3 261.4,920 			"/>
		</g>
	</g>
	<g>
		<path class="st8" d="M484.7,611.4c3.9,6,2.2,14.1-3.9,18c-0.7,0.5-1.7,0.3-2.2-0.5c-0.5-0.7-0.3-1.7,0.5-2.2
			c4.5-2.9,5.8-9,2.9-13.6c-3.9-6-10.3-4.3-13.8-2.8c-7.1,3.1-14.2,1.5-17.7-4c-3.9-6-2.2-14.1,3.9-18c0.7-0.5,1.7-0.3,2.2,0.5
			c0.5,0.7,0.3,1.7-0.5,2.2c-4.5,2.9-5.8,9-2.9,13.6c2.1,3.2,6.9,5.9,13.8,2.8C474.4,604.1,480.9,605.5,484.7,611.4z"/>
	</g>
	<g>
		<path class="st8" d="M122,74.9c3.9,6,2.2,14.1-3.9,18c-0.7,0.5-1.7,0.3-2.2-0.5c-0.5-0.7-0.3-1.7,0.5-2.2c4.5-2.9,5.8-9,2.9-13.6
			c-3.9-6-10.3-4.3-13.8-2.8c-7.1,3.1-14.2,1.5-17.7-4c-3.9-6-2.2-14.1,3.9-18c0.7-0.5,1.7-0.3,2.2,0.5c0.5,0.7,0.3,1.7-0.5,2.2
			c-4.5,2.9-5.8,9-2.9,13.6c2.1,3.2,6.9,5.9,13.8,2.8C111.8,67.5,118.2,69,122,74.9z"/>
	</g>
	<g>
		<path class="st2" d="M216.1,406.6c0.5-0.3,1-0.7,1.2-1.4c0.4-1.2-0.2-2.6-1.5-3c-3.7-1.3-6.6-3.9-8.3-7.4
			c-3.5-7.2-0.5-15.9,6.7-19.4c4.7-2.3,10.2-1.9,14.5,1.1c1.1,0.7,2.6,0.5,3.3-0.6c0.7-1.1,0.5-2.6-0.6-3.3
			c-5.7-3.9-13.1-4.4-19.3-1.4c-9.6,4.6-13.6,16.2-8.9,25.8c2.2,4.6,6.2,8.1,11,9.8C214.9,406.9,215.6,406.9,216.1,406.6z"/>
	</g>
	<g>
		<path class="st2" d="M327.9,204.4c-0.7,0.4-1.3,1-1.6,1.9c-0.5,1.7,0.4,3.5,2.1,4c5,1.6,9.1,5,11.6,9.6c5.1,9.6,1.4,21.5-8.2,26.6
			c-6.2,3.3-13.8,3-19.7-0.8c-1.5-0.9-3.5-0.5-4.4,1c-0.9,1.5-0.5,3.5,1,4.4c7.9,5,17.9,5.4,26.1,1c12.7-6.7,17.6-22.5,10.9-35.3
			c-3.3-6.2-8.7-10.7-15.4-12.7C329.4,203.9,328.6,204,327.9,204.4z"/>
	</g>
	<g>
		<path class="st2" d="M274.6,647c0.2,0.6,0.6,1.1,1.1,1.4c1.2,0.6,2.6,0.2,3.2-1c1.8-3.4,4.9-5.9,8.6-7c7.7-2.3,15.8,2.1,18.1,9.7
			c1.5,5,0.2,10.4-3.4,14.2c-0.9,1-0.9,2.4,0.1,3.3c1,0.9,2.4,0.9,3.3-0.1c4.7-5,6.4-12.2,4.5-18.8c-3.1-10.2-13.8-16-24-12.9
			c-4.9,1.5-9,4.8-11.4,9.3C274.5,645.8,274.4,646.5,274.6,647z"/>
	</g>
	<path class="st0" d="M545.7,506.9c-6.8,0-12.3,5.5-12.3,12.3c0,6.8,5.5,12.3,12.3,12.3s12.3-5.5,12.3-12.3
		C557.9,512.4,552.5,506.9,545.7,506.9z"/>
	<g>
		<path class="st1" d="M377.7,496.2l3.4-26.5l26.5,3.4l-3.4,26.5L377.7,496.2z M384.5,474.1l-2.4,18.8l18.8,2.4l2.4-18.8
			L384.5,474.1z"/>
	</g>
	<g>
		<path class="st3" d="M210.5,644.9v39.6l-39.6-19.8L210.5,644.9z M206,677.2v-24.9L181,664.7L206,677.2z"/>
	</g>
	<g>
		<g>
			<path class="st10" d="M242.4,804.4c0,11-8.9,19.9-19.9,19.9c-6.9,0-13.2-3.5-16.9-9.4c-0.1-0.2-0.1-0.4,0.1-0.6
				c0.2-0.1,0.4-0.1,0.6,0.1c3.5,5.6,9.6,9,16.2,9c10.5,0,19-8.5,19-19c0-3.2-0.8-6.4-2.3-9.1c-0.1-0.2,0-0.5,0.2-0.6
				c0.2-0.1,0.5,0,0.6,0.2C241.5,797.8,242.4,801.1,242.4,804.4z"/>
		</g>
		<g>
			<path class="st10" d="M238.8,793.2c0,0.1-0.1,0.3-0.2,0.3c-0.2,0.1-0.4,0.1-0.6-0.1c-0.2-0.3-0.5-0.7-0.7-1
				c-0.1-0.2-0.1-0.4,0.1-0.6c0.2-0.1,0.4-0.1,0.6,0.1c0.3,0.3,0.5,0.7,0.8,1C238.8,793,238.8,793.1,238.8,793.2z"/>
		</g>
		<g>
			<path class="st10" d="M236.3,790.3c0,0.1,0,0.2-0.1,0.3c-0.2,0.2-0.4,0.2-0.6,0c-3.6-3.4-8.2-5.2-13.1-5.2c-10.5,0-19,8.5-19,19
				c0,3,0.7,5.9,2,8.6c0.1,0.2,0,0.5-0.2,0.6c-0.2,0.1-0.5,0-0.6-0.2c-1.4-2.8-2.1-5.8-2.1-8.9c0-11,8.9-19.9,19.9-19.9
				c5.1,0,10,1.9,13.7,5.5C236.3,790.1,236.3,790.2,236.3,790.3z"/>
		</g>
	</g>
	<path class="st0" d="M32.8,48.4c-6.8,0-12.3,5.5-12.3,12.3c0,6.8,5.5,12.3,12.3,12.3S45,67.4,45,60.7C45,53.9,39.5,48.4,32.8,48.4z
		"/>
	<g>
		<path class="st1" d="M639.3,688.4L639.3,688.4c0,1.3-1.1,2.4-2.4,2.4h-11.2c-1.3,0-2.4-1.1-2.4-2.4v-8.8c0-1.3-1.1-2.4-2.4-2.4
			H612c-1.3,0-2.4-1.1-2.4-2.4V666c0-1.3-1.1-2.4-2.4-2.4h-8.8c-1.3,0-2.4-1.1-2.4-2.4v-8.8c0-1.3-1.1-2.4-2.4-2.4h-8.8
			c-1.3,0-2.4-1.1-2.4-2.4v-8.8c0-1.3-1.1-2.4-2.4-2.4h-8.8c-1.3,0-2.4-1.1-2.4-2.4v-11.2c0-1.3,1.1-2.4,2.4-2.4l0,0
			c1.3,0,2.4,1.1,2.4,2.4v6.3c0,1.3,1.1,2.4,2.4,2.4h8.8c1.3,0,2.4,1.1,2.4,2.4v8.8c0,1.3,1.1,2.4,2.4,2.4h8.8
			c1.3,0,2.4,1.1,2.4,2.4v8.8c0,1.3,1.1,2.4,2.4,2.4h8.8c1.3,0,2.4,1.1,2.4,2.4v8.8c0,1.3,1.1,2.4,2.4,2.4h8.8
			c1.3,0,2.4,1.1,2.4,2.4v8.8c0,1.3,1.1,2.4,2.4,2.4h6.3C638.2,685.9,639.3,687,639.3,688.4z"/>
	</g>
	<g>
		<path class="st0" d="M606.2,343c0.2,0.6,0.6,1.1,1.1,1.4c1.2,0.6,2.6,0.2,3.2-1c1.8-3.4,4.9-5.9,8.6-7c7.7-2.3,15.8,2.1,18.1,9.7
			c1.5,5,0.2,10.4-3.4,14.2c-0.9,1-0.9,2.4,0.1,3.3c1,0.9,2.4,0.9,3.3-0.1c4.7-5,6.4-12.2,4.5-18.8c-3.1-10.2-13.8-16-24-12.9
			c-4.9,1.5-9,4.8-11.4,9.3C606.1,341.8,606.1,342.4,606.2,343z"/>
	</g>
	<g>
		<path class="st1" d="M599.2,445.2l3.4-26.5l26.5,3.4l-3.4,26.5L599.2,445.2z M606,423.1l-2.4,18.8l18.8,2.4l2.4-18.8L606,423.1z"
			/>
	</g>
	<path class="st1" d="M585.1,273.4c0.1,6.9-5.4,12.6-12.3,12.7c-6.9,0.1-12.6-5.4-12.7-12.3c-0.1-6.9,5.4-12.6,12.3-12.7
		C579.3,260.9,585,266.4,585.1,273.4z M565.9,273.7c0.1,3.7,3.1,6.7,6.8,6.6c3.7-0.1,6.7-3.1,6.6-6.8c-0.1-3.7-3.1-6.7-6.8-6.6
		C568.8,266.9,565.8,270,565.9,273.7z"/>
	
		<ellipse transform="matrix(0.7071 -0.7071 0.7071 0.7071 -632.6938 420.6934)" class="st0" cx="191.5" cy="974.1" rx="9.8" ry="9.8"/>
	<g>
		<path class="st11" d="M68,976.7l19.2-19.2l19.2,19.2l-19.2,19.2L68,976.7z M87.2,963.1l-13.6,13.6l13.6,13.6l13.6-13.6L87.2,963.1
			z"/>
	</g>
	<g>
		<path class="st3" d="M353,953.4V993l-39.6-19.8L353,953.4z M348.4,985.7v-24.9l-24.9,12.5L348.4,985.7z"/>
	</g>
	<g>
		<path class="st8" d="M54,824.7c3.8,5.9,2.1,13.7-3.8,17.5c-0.7,0.5-1.7,0.3-2.2-0.5c-0.5-0.7-0.3-1.7,0.5-2.2
			c4.4-2.9,5.7-8.8,2.8-13.2c-3.8-5.9-10.1-4.2-13.4-2.7c-6.9,3.1-13.8,1.5-17.3-3.9c-3.8-5.9-2.1-13.7,3.8-17.5
			c0.7-0.5,1.7-0.3,2.2,0.5c0.5,0.7,0.3,1.7-0.5,2.2c-4.4,2.9-5.7,8.8-2.8,13.2c2,3.1,6.7,5.7,13.4,2.7
			C44,817.5,50.3,818.9,54,824.7z"/>
	</g>
	<g>
		<path class="st2" d="M439.5,947.7c-0.7-0.1-1.4,0.1-2,0.6c-1.1,0.9-1.3,2.6-0.4,3.7c2.7,3.4,4,7.7,3.5,12c-1,9-9.1,15.5-18.1,14.5
			c-5.8-0.6-10.9-4.4-13.2-9.7c-0.6-1.4-2.2-2-3.5-1.4c-1.3,0.6-2,2.2-1.4,3.5c3.1,7.1,9.8,12.1,17.5,12.9
			c11.9,1.3,22.6-7.3,24-19.2c0.6-5.8-1-11.4-4.6-16C440.8,948.1,440.2,947.8,439.5,947.7z"/>
	</g>
	<path class="st1" d="M540.5,914.6c0.1,6.9-5.4,12.6-12.3,12.7c-6.9,0.1-12.6-5.4-12.7-12.3c-0.1-6.9,5.4-12.6,12.3-12.7
		C534.7,902.2,540.4,907.7,540.5,914.6z M521.3,915c0.1,3.7,3.1,6.7,6.8,6.6c3.7-0.1,6.7-3.1,6.6-6.8c-0.1-3.7-3.1-6.7-6.8-6.6
		C524.2,908.2,521.2,911.3,521.3,915z"/>
	<g>
		<path class="st9" d="M252.5,100.7V140l-39.3-19.7L252.5,100.7z M248,132.7V108l-24.8,12.4L248,132.7z"/>
	</g>
	<g>
		<defs>
			
				<rect id="SVGID_1_" x="-174" y="168.8" transform="matrix(6.123234e-17 -1 1 6.123234e-17 -173.4767 841.006)" width="1015.4" height="677"/>
		</defs>
		<clipPath id="SVGID_2_">
			<use xlink:href="#SVGID_1_"  style="overflow:visible;"/>
		</clipPath>
		<g class="st12">
			<path class="st9" d="M725.1,852.7c0.8,47.4-37.1,86.6-84.5,87.5c-47.4,0.8-86.7-37.1-87.5-84.5c-0.8-47.4,37.1-86.7,84.5-87.5
				C685.1,767.3,724.3,805.2,725.1,852.7z M593,855c0.4,25.4,21.5,45.8,46.9,45.3c25.4-0.4,45.8-21.5,45.3-46.9
				c-0.4-25.4-21.5-45.8-46.9-45.3C612.9,808.5,592.6,829.5,593,855z"/>
			<g>
				<g>
					<path class="st9" d="M710.7,529.6c0,30.3-24.6,54.9-54.9,54.9c-19.1,0-36.5-9.7-46.6-25.9c-0.3-0.5-0.2-1.2,0.4-1.6
						c0.5-0.3,1.2-0.2,1.6,0.4c9.7,15.5,26.4,24.8,44.7,24.8c29,0,52.6-23.6,52.6-52.6c0-8.8-2.2-17.6-6.4-25.2
						c-0.3-0.6-0.1-1.2,0.5-1.6c0.6-0.3,1.2-0.1,1.6,0.5C708.4,511.3,710.7,520.4,710.7,529.6z"/>
				</g>
				<g>
					<path class="st9" d="M700.9,498.6c0,0.4-0.2,0.7-0.5,0.9c-0.5,0.4-1.2,0.2-1.6-0.3c-0.6-0.9-1.3-1.8-2-2.7
						c-0.4-0.5-0.3-1.2,0.2-1.6c0.5-0.4,1.2-0.3,1.6,0.2c0.7,0.9,1.4,1.8,2.1,2.8C700.8,498.2,700.9,498.4,700.9,498.6z"/>
				</g>
				<g>
					<path class="st9" d="M694,490.6c0,0.3-0.1,0.6-0.3,0.8c-0.4,0.5-1.2,0.5-1.6,0c-9.8-9.3-22.7-14.5-36.3-14.5
						c-29,0-52.6,23.6-52.6,52.6c0,8.3,1.9,16.3,5.6,23.6c0.3,0.6,0.1,1.3-0.5,1.5c-0.6,0.3-1.3,0.1-1.5-0.5
						c-3.9-7.7-5.8-16-5.8-24.7c0-30.3,24.6-54.9,54.9-54.9c14.1,0,27.6,5.4,37.8,15.1C693.9,490,694,490.3,694,490.6z"/>
				</g>
			</g>
			<path class="st9" d="M600.8-1.9c0.2,10.7-8.4,19.6-19.1,19.8c-10.7,0.2-19.6-8.4-19.8-19.1c-0.2-10.7,8.4-19.6,19.1-19.8
				C591.8-21.2,600.7-12.6,600.8-1.9z M570.9-1.3C571,4.4,575.8,9,581.6,8.9s10.4-4.9,10.3-10.6c-0.1-5.8-4.9-10.4-10.6-10.3
				C575.4-11.9,570.8-7.1,570.9-1.3z"/>
			<g>
				<g>
					<polygon class="st9" points="40,-7.5 40.3,-23.7 56.5,-23.5 56.4,-18.9 44.8,-19.1 44.6,-7.4 					"/>
				</g>
				<g>
					<polygon class="st9" points="49.9,2.8 50.2,-13.5 66.4,-13.2 66.3,-8.7 54.7,-8.8 54.5,2.8 					"/>
				</g>
				<g>
					<polygon class="st9" points="59.8,13 60.1,-3.3 76.3,-3 76.3,1.6 64.6,1.4 64.4,13 					"/>
				</g>
				<g>
					<polygon class="st9" points="69.7,23.2 70,6.9 86.2,7.2 86.2,11.8 74.5,11.6 74.3,23.3 					"/>
				</g>
			</g>
			<g>
				<path class="st9" d="M38.4,972.2L38.4,972.2c0,1.3-1.1,2.4-2.4,2.4H24.8c-1.3,0-2.4-1.1-2.4-2.4v-8.8c0-1.3-1.1-2.4-2.4-2.4
					h-8.8c-1.3,0-2.4-1.1-2.4-2.4v-8.8c0-1.3-1.1-2.4-2.4-2.4h-8.8c-1.3,0-2.4-1.1-2.4-2.4v-8.8c0-1.3-1.1-2.4-2.4-2.4h-8.8
					c-1.3,0-2.4-1.1-2.4-2.4v-8.8c0-1.3-1.1-2.4-2.4-2.4h-8.8c-1.3,0-2.4-1.1-2.4-2.4v-11.2c0-1.3,1.1-2.4,2.4-2.4l0,0
					c1.3,0,2.4,1.1,2.4,2.4v6.3c0,1.3,1.1,2.4,2.4,2.4h8.8c1.3,0,2.4,1.1,2.4,2.4v8.8c0,1.3,1.1,2.4,2.4,2.4h8.8
					c1.3,0,2.4,1.1,2.4,2.4v8.8c0,1.3,1.1,2.4,2.4,2.4h8.8c1.3,0,2.4,1.1,2.4,2.4v8.8c0,1.3,1.1,2.4,2.4,2.4h8.8
					c1.3,0,2.4,1.1,2.4,2.4v8.8c0,1.3,1.1,2.4,2.4,2.4H36C37.3,969.7,38.4,970.8,38.4,972.2z"/>
			</g>
			<g>
				<path class="st13" d="M14.5,611.6c-3.6-3.2-8.4-5-13.5-4.7c-3.2,0.2-6.2-0.9-8.6-3c-2.4-2.1-3.8-5-4-8.2
					c-0.1-1.9-1.7-3.3-3.6-3.2c-1.9,0.1-3.3,1.7-3.2,3.6c0.3,5,2.5,9.6,6.2,12.9c3.7,3.3,8.5,5,13.5,4.7c6.6-0.4,12.2,4.6,12.6,11.2
					l0.1,2.1c0.3,5,2.5,9.6,6.2,12.9c3.7,3.3,8.5,5,13.5,4.7l1.1-0.1c6.6-0.4,12.2,4.6,12.6,11.2l0.3,5.3
					c0.6,10.3,9.4,18.2,19.7,17.6c1.9-0.1,3.3-1.7,3.2-3.6c-0.1-1.9-1.7-3.3-3.6-3.2c-6.6,0.4-12.2-4.7-12.6-11.2l-0.3-5.3
					c-0.3-5-2.5-9.6-6.2-12.9c-3.7-3.3-8.5-5-13.5-4.7l-1.1,0.1c-3.2,0.2-6.2-0.9-8.6-3c-2.4-2.1-3.8-5-4-8.2l-0.1-2.1
					C20.4,619.3,18,614.8,14.5,611.6z"/>
			</g>
			<g>
				<path class="st2" d="M244.8,973.1c-0.9,0.5-1.6,1.3-1.9,2.3c-0.6,2.1,0.5,4.2,2.6,4.9c6.1,1.9,11.1,6,14.1,11.7
					c6.2,11.7,1.7,26.2-10,32.4c-7.6,4-16.8,3.6-24-0.9c-1.8-1.2-4.2-0.6-5.4,1.2c-1.1,1.8-0.6,4.2,1.2,5.4
					c9.6,6.1,21.8,6.5,31.8,1.2c15.5-8.2,21.4-27.4,13.2-42.9c-4-7.5-10.6-13-18.7-15.5C246.7,972.6,245.6,972.7,244.8,973.1z"/>
			</g>
			<g>
				<path class="st8" d="M693.4,652.2c5.8,8.9,3.2,20.9-5.7,26.6c-1.1,0.7-2.6,0.4-3.3-0.7c-0.7-1.1-0.4-2.6,0.7-3.3
					c6.7-4.3,8.7-13.4,4.3-20.1c-5.8-8.9-15.3-6.4-20.4-4.2c-10.5,4.7-21,2.3-26.3-5.9c-5.8-8.9-3.2-20.9,5.7-26.6
					c1.1-0.7,2.6-0.4,3.3,0.7c0.7,1.1,0.4,2.6-0.7,3.3c-6.7,4.3-8.7,13.4-4.3,20.1c3.1,4.7,10.3,8.7,20.4,4.2
					C678.2,641.3,687.8,643.5,693.4,652.2z"/>
			</g>
			<g>
				<path class="st2" d="M-14.8,325.4c0.2,0.6,0.6,1.1,1.1,1.4c1.2,0.6,2.6,0.2,3.2-1c1.8-3.4,4.9-5.9,8.6-7
					c7.7-2.3,15.8,2.1,18.1,9.7c1.5,5,0.2,10.4-3.4,14.2c-0.9,1-0.9,2.4,0.1,3.3c1,0.9,2.4,0.9,3.3-0.1c4.7-5,6.4-12.2,4.5-18.8
					c-3.1-10.2-13.8-16-24-12.9c-4.9,1.5-9,4.8-11.4,9.3C-14.9,324.2-15,324.8-14.8,325.4z"/>
			</g>
			<g>
				<path class="st3" d="M221.7-18.9v41.4L180.3,1.8L221.7-18.9z M216.9,14.9v-26.1l-26.1,13L216.9,14.9z"/>
			</g>
			<g>
				<path class="st9" d="M704.4,341.4L704.4,341.4c0,1.3-1.1,2.4-2.4,2.4h-11.2c-1.3,0-2.4-1.1-2.4-2.4v-8.8c0-1.3-1.1-2.4-2.4-2.4
					h-8.8c-1.3,0-2.4-1.1-2.4-2.4V319c0-1.3-1.1-2.4-2.4-2.4h-8.8c-1.3,0-2.4-1.1-2.4-2.4v-8.8c0-1.3-1.1-2.4-2.4-2.4h-8.8
					c-1.3,0-2.4-1.1-2.4-2.4v-8.8c0-1.3-1.1-2.4-2.4-2.4h-8.8c-1.3,0-2.4-1.1-2.4-2.4v-11.2c0-1.3,1.1-2.4,2.4-2.4l0,0
					c1.3,0,2.4,1.1,2.4,2.4v6.3c0,1.3,1.1,2.4,2.4,2.4h8.8c1.3,0,2.4,1.1,2.4,2.4v8.8c0,1.3,1.1,2.4,2.4,2.4h8.8
					c1.3,0,2.4,1.1,2.4,2.4v8.8c0,1.3,1.1,2.4,2.4,2.4h8.8c1.3,0,2.4,1.1,2.4,2.4v8.8c0,1.3,1.1,2.4,2.4,2.4h8.8
					c1.3,0,2.4,1.1,2.4,2.4v8.8c0,1.3,1.1,2.4,2.4,2.4h6.3C703.3,339,704.4,340.1,704.4,341.4z"/>
			</g>
			<g>
				<path class="st9" d="M628.7,71.2l57.7,57.7c0.3-1,0.6-2,0.9-3l-55.6-55.6C630.6,70.6,629.6,70.9,628.7,71.2z"/>
				<path class="st9" d="M623.2,73.5l60.8,60.8c0.4-0.9,0.9-1.7,1.2-2.6l-59.4-59.4C625,72.6,624.1,73.1,623.2,73.5z"/>
				<path class="st9" d="M634.8,69.6l53.1,53.1c0.2-1.1,0.4-2.3,0.5-3.4l-50.2-50.2C637,69.2,635.9,69.4,634.8,69.6z"/>
				<path class="st9" d="M618.4,76.4l62.7,62.7c0.5-0.8,1-1.5,1.5-2.3l-61.9-61.9C620,75.4,619.2,75.9,618.4,76.4z"/>
				<path class="st9" d="M688.6,115.7c0-1.3,0-2.7-0.1-4L645.8,69c-1.3-0.1-2.7-0.1-4-0.1L688.6,115.7z"/>
				<path class="st9" d="M614.9,142.6c4,4,8.6,7.1,13.4,9.4l-22.8-22.8C607.8,134,610.9,138.6,614.9,142.6z"/>
				<path class="st9" d="M601.4,113.4l42.7,42.7c1.3,0.1,2.7,0.1,4,0.1l-46.8-46.8C601.2,110.8,601.3,112.1,601.4,113.4z"/>
				<path class="st9" d="M686.7,102.2l-31.4-31.4c-1.7-0.5-3.4-0.9-5.1-1.2l37.7,37.7C687.6,105.6,687.2,103.9,686.7,102.2z"/>
				<path class="st9" d="M614.2,79.9l63.4,63.4c0.6-0.7,1.2-1.4,1.8-2.1l-63.2-63.2C615.5,78.7,614.8,79.3,614.2,79.9z"/>
				<path class="st9" d="M603.2,122.9l31.4,31.4c1.7,0.5,3.4,0.9,5.1,1.2L602,117.9C602.3,119.6,602.7,121.3,603.2,122.9z"/>
				<path class="st9" d="M601.5,105.8l50.2,50.2c1.1-0.1,2.3-0.3,3.4-0.5L602,102.4C601.8,103.5,601.6,104.7,601.5,105.8z"/>
				<path class="st9" d="M674.9,82.6c-4-4-8.6-7.1-13.4-9.4L684.3,96C682.1,91.2,679,86.6,674.9,82.6z"/>
				<path class="st9" d="M607.2,88.4l61.9,61.9c0.8-0.5,1.6-1,2.3-1.5l-62.7-62.7C608.2,86.8,607.7,87.6,607.2,88.4z"/>
				<path class="st9" d="M602.7,99.3l55.6,55.6c1-0.3,2-0.6,3-0.9l-57.7-57.7C603.2,97.3,602.9,98.3,602.7,99.3z"/>
				<path class="st9" d="M610.4,83.9l63.2,63.2c0.7-0.6,1.4-1.2,2.1-1.8l-63.4-63.4C611.6,82.5,611,83.2,610.4,83.9z"/>
				<path class="st9" d="M604.6,93.5l59.4,59.4c0.9-0.4,1.8-0.8,2.6-1.2l-60.8-60.8C605.4,91.7,605,92.6,604.6,93.5z"/>
			</g>
			<g>
				<g>
					<path class="st1" d="M482.1,21.5c0,20.3-16.5,36.8-36.8,36.8c-20.3,0-36.8-16.5-36.8-36.8s16.5-36.8,36.8-36.8
						C465.5-15.4,482.1,1.2,482.1,21.5z M409.8,21.5c0,19.5,15.9,35.4,35.4,35.4c19.5,0,35.4-15.9,35.4-35.4
						c0-19.5-15.9-35.4-35.4-35.4C425.7-13.9,409.8,1.9,409.8,21.5z"/>
				</g>
				<g>
					<path class="st1" d="M478.7,21.5c0,18.5-15,33.5-33.5,33.5s-33.5-15-33.5-33.5s15-33.5,33.5-33.5S478.7,3,478.7,21.5z
						 M413.2,21.5c0,17.7,14.4,32.1,32.1,32.1s32.1-14.4,32.1-32.1c0-17.7-14.4-32.1-32.1-32.1S413.2,3.8,413.2,21.5z"/>
				</g>
				<g>
					<path class="st1" d="M475.4,21.5c0,16.6-13.5,30.1-30.1,30.1c-16.6,0-30.1-13.5-30.1-30.1c0-16.6,13.5-30.1,30.1-30.1
						C461.8-8.7,475.4,4.8,475.4,21.5z M416.5,21.5c0,15.8,12.9,28.7,28.7,28.7c15.8,0,28.7-12.9,28.7-28.7
						c0-15.8-12.9-28.7-28.7-28.7C429.4-7.2,416.5,5.6,416.5,21.5z"/>
				</g>
				<g>
					<path class="st1" d="M472,21.5c0,14.8-12,26.8-26.8,26.8c-14.8,0-26.8-12-26.8-26.8s12-26.8,26.8-26.8
						C460-5.3,472,6.7,472,21.5z M419.9,21.5c0,14,11.4,25.4,25.4,25.4c14,0,25.4-11.4,25.4-25.4S459.2-3.9,445.2-3.9
						C431.2-3.9,419.9,7.5,419.9,21.5z"/>
				</g>
				<g>
					<path class="st1" d="M468.7,21.5c0,12.9-10.5,23.4-23.4,23.4c-12.9,0-23.4-10.5-23.4-23.4C421.8,8.5,432.3-2,445.2-2
						C458.1-2,468.7,8.5,468.7,21.5z M423.2,21.5c0,12.1,9.9,22,22,22c12.1,0,22-9.9,22-22c0-12.1-9.9-22-22-22
						C433.1-0.5,423.2,9.3,423.2,21.5z"/>
				</g>
				<g>
					<path class="st1" d="M465.3,21.5c0,11.1-9,20.1-20.1,20.1c-11.1,0-20.1-9-20.1-20.1s9-20.1,20.1-20.1
						C456.3,1.4,465.3,10.4,465.3,21.5z M426.6,21.5c0,10.3,8.4,18.7,18.7,18.7c10.3,0,18.7-8.4,18.7-18.7
						c0-10.3-8.4-18.7-18.7-18.7C434.9,2.8,426.6,11.2,426.6,21.5z"/>
				</g>
				<g>
					<path class="st1" d="M462,21.5c0,9.2-7.5,16.7-16.7,16.7s-16.7-7.5-16.7-16.7c0-9.2,7.5-16.7,16.7-16.7S462,12.2,462,21.5z
						 M429.9,21.5c0,8.4,6.9,15.3,15.3,15.3c8.4,0,15.3-6.9,15.3-15.3c0-8.4-6.9-15.3-15.3-15.3C436.8,6.2,429.9,13,429.9,21.5z"/>
				</g>
				<g>
					<path class="st1" d="M458.6,21.5c0,7.4-6,13.4-13.4,13.4c-7.4,0-13.4-6-13.4-13.4c0-7.4,6-13.4,13.4-13.4
						C452.6,8.1,458.6,14.1,458.6,21.5z M433.2,21.5c0,6.6,5.4,12,12,12c6.6,0,12-5.4,12-12c0-6.6-5.4-12-12-12
						C438.6,9.5,433.2,14.9,433.2,21.5z"/>
				</g>
				<g>
					<path class="st1" d="M455.3,21.5c0,5.5-4.5,10-10,10c-5.5,0-10-4.5-10-10s4.5-10,10-10C450.8,11.4,455.3,15.9,455.3,21.5z
						 M436.6,21.5c0,4.8,3.9,8.6,8.6,8.6c4.8,0,8.6-3.9,8.6-8.6c0-4.8-3.9-8.6-8.6-8.6C440.5,12.9,436.6,16.7,436.6,21.5z"/>
				</g>
				<g>
					<path class="st1" d="M451.9,21.5c0,3.7-3,6.7-6.7,6.7c-3.7,0-6.7-3-6.7-6.7c0-3.7,3-6.7,6.7-6.7
						C448.9,14.8,451.9,17.8,451.9,21.5z M439.9,21.5c0,2.9,2.4,5.3,5.3,5.3c2.9,0,5.3-2.4,5.3-5.3s-2.4-5.3-5.3-5.3
						C442.3,16.2,439.9,18.6,439.9,21.5z"/>
				</g>
			</g>
			<path class="st0" d="M516.1,966.6c-17.3,0-31.4,14-31.4,31.4c0,17.3,14,31.4,31.4,31.4c17.3,0,31.4-14,31.4-31.4
				C547.5,980.7,533.4,966.6,516.1,966.6z"/>
			<g>
				<path class="st2" d="M350.6,18.7c0.5-0.3,1-0.7,1.2-1.4c0.4-1.2-0.2-2.6-1.5-3c-3.7-1.3-6.6-3.9-8.3-7.4
					c-3.5-7.2-0.5-15.9,6.7-19.4c4.7-2.3,10.2-1.9,14.5,1.1c1.1,0.7,2.6,0.5,3.3-0.6c0.7-1.1,0.5-2.6-0.6-3.3
					c-5.7-3.9-13.1-4.4-19.3-1.4c-9.6,4.6-13.6,16.2-8.9,25.8c2.2,4.6,6.2,8.1,11,9.8C349.4,19.1,350.1,19,350.6,18.7z"/>
			</g>
			<g>
				<path class="st11" d="M-23.5,225l-1.4-30.6l-26.5,1.2c-1.9,0.1-3.5-1.4-3.5-3.2c-0.1-1.9,1.4-3.5,3.2-3.5l33.2-1.5l1.4,30.6
					l32.7-1.5l1.5,31.6l32.5-1.5c1.9-0.1,3.5,1.4,3.5,3.2c0.1,1.9-1.4,3.5-3.2,3.5l-39.3,1.8l-1.5-31.6L-23.5,225z"/>
			</g>
			<g>
				<path class="st6" d="M636.2,998c2.4,2.3,4,5.5,4.1,9.1c0.1,2.2,1,4.3,2.6,5.8c1.6,1.5,3.7,2.3,6,2.2c1.3,0,2.4,1,2.4,2.3
					c0,1.3-1,2.4-2.3,2.4c-3.5,0.1-6.8-1.1-9.4-3.5c-2.5-2.4-4-5.6-4.1-9.1c-0.2-4.6-4-8.2-8.6-8l-1.5,0c-3.5,0.1-6.8-1.1-9.4-3.5
					c-2.5-2.4-4-5.6-4.1-9.1l0-0.7c-0.2-4.6-4-8.2-8.6-8l-3.7,0.1c-7.2,0.2-13.2-5.4-13.5-12.6c0-1.3,1-2.4,2.3-2.4
					c1.3,0,2.4,1,2.4,2.3c0.2,4.6,4,8.2,8.6,8l3.7-0.1c3.5-0.1,6.8,1.1,9.4,3.5c2.5,2.4,4,5.6,4.1,9.1l0,0.7c0.1,2.2,1,4.3,2.6,5.8
					c1.6,1.5,3.7,2.3,6,2.2l1.5,0C630.5,994.3,633.8,995.7,636.2,998z"/>
			</g>
		</g>
	</g>
</g>
<rect x="-12.4" y="-13.4" class="st14" width="702.3" height="965.9"/>
</svg>
