<?xml version="1.0" encoding="utf-8"?>
<!-- Generator: Adobe Illustrator 19.0.0, SVG Export Plug-In . SVG Version: 6.00 Build 0)  -->
<svg version="1.1" id="Layer_1" xmlns="http://www.w3.org/2000/svg" xmlns:xlink="http://www.w3.org/1999/xlink" x="0px" y="0px"
	 viewBox="0 0 50 50" style="enable-background:new 0 0 50 50;" xml:space="preserve">
<style type="text/css">
	.st0{fill:#1F2125;}
</style>
<g id="XMLID_12_">
	<path id="XMLID_15_" class="st0" d="M22.6,2.2c-0.6,0-1,0.5-1,1v4.1c-11,0.5-19.9,9.7-19.9,20.9C1.7,39.6,11,49,22.6,49
		c11.2,0,20.3-8.8,20.9-19.9h4.1c0.6,0,1-0.5,1-1C48.5,13.8,36.9,2.2,22.6,2.2z M22.6,47C12.2,47,3.7,38.5,3.7,28.1
		c0-10,7.9-18.3,17.8-18.8v18.8c0,0.6,0.5,1,1,1h18.8C40.8,39.1,32.6,47,22.6,47z M23.6,27.1V4.2c12.4,0.5,22.3,10.5,22.8,22.8H23.6
		z"/>
</g>
</svg>
